<?xml version="1.0" encoding="UTF-8" standalone="no"?>
<!-- Created with Inkscape (http://www.inkscape.org/) -->

<svg
   xmlns:dc="http://purl.org/dc/elements/1.1/"
   xmlns:cc="http://creativecommons.org/ns#"
   xmlns:rdf="http://www.w3.org/1999/02/22-rdf-syntax-ns#"
   xmlns:svg="http://www.w3.org/2000/svg"
   xmlns="http://www.w3.org/2000/svg"
   xmlns:sodipodi="http://sodipodi.sourceforge.net/DTD/sodipodi-0.dtd"
   xmlns:inkscape="http://www.inkscape.org/namespaces/inkscape"
   width="210mm"
   height="297mm"
   viewBox="0 0 210 297"
   version="1.1"
   id="svg8"
   inkscape:version="0.92.5 (2060ec1f9f, 2020-04-08)"
   sodipodi:docname="123.svg">
  <defs
     id="defs2">
    <filter
       style="color-interpolation-filters:sRGB"
       inkscape:label="Drop Shadow"
       id="filter1065">
      <feFlood
         flood-opacity="0.305882"
         flood-color="rgb(0,0,0)"
         result="flood"
         id="feFlood1055" />
      <feComposite
         in="flood"
         in2="SourceGraphic"
         operator="in"
         result="composite1"
         id="feComposite1057" />
      <feGaussianBlur
         in="composite1"
         stdDeviation="4"
         result="blur"
         id="feGaussianBlur1059" />
      <feOffset
         dx="0"
         dy="5"
         result="offset"
         id="feOffset1061" />
      <feComposite
         in="SourceGraphic"
         in2="offset"
         operator="over"
         result="composite2"
         id="feComposite1063" />
    </filter>
  </defs>
  <sodipodi:namedview
     id="base"
     pagecolor="#ffffff"
     bordercolor="#666666"
     borderopacity="1.0"
     inkscape:pageopacity="0.0"
     inkscape:pageshadow="2"
     inkscape:zoom="0.46585"
     inkscape:cx="-12.977256"
     inkscape:cy="568.77458"
     inkscape:document-units="mm"
     inkscape:current-layer="layer1"
     showgrid="false" />
  <metadata
     id="metadata5">
    <rdf:RDF>
      <cc:Work
         rdf:about="">
        <dc:format>image/svg+xml</dc:format>
        <dc:type
           rdf:resource="http://purl.org/dc/dcmitype/StillImage" />
        <dc:title></dc:title>
      </cc:Work>
    </rdf:RDF>
  </metadata>
  <g
     inkscape:label="Layer 1"
     inkscape:groupmode="layer"
     id="layer1">
    <g
       transform="translate(189.65248,48.685193)"
       id="layer1-3"
       inkscape:label="Layer 1">
      <path
         inkscape:connector-curvature="0"
         id="path826"
         d="m -123.182,164.85691 c -6.50861,-1.43239 -12.32801,-6.04287 -15.2193,-12.05764 -1.82928,-3.80547 -2.37815,-6.21504 -2.3543,-10.33564 0.0359,-6.20398 2.04988,-10.97835 6.52702,-15.47308 3.31421,-3.32724 6.22247,-5.03303 10.4045,-6.10262 6.65299,-1.3728 11.75449,0.36123 17.27239,2.38689 0,0 0.18112,-40.594439 0.18112,-65.413105 26.503935,-7.588423 79.488624,-22.846108 79.488624,-22.846108 l -0.18624,92.164903 -0.925277,2.717 c -2.431037,7.13853 -7.645813,12.45196 -14.527644,14.80251 -2.985268,1.01962 -9.069737,1.27893 -12.289318,0.52373 -10.07783,-2.36388 -17.280962,-11.41055 -17.340958,-21.77911 -0.02362,-4.08753 0.524602,-6.53052 2.286592,-10.18875 4.712197,-8.20682 12.56582,-12.50544 19.871927,-12.52979 5.316538,0.15201 8.059729,1.02642 12.226497,3.18491 l -0.33432,-38.712048 -57.19091,16.302009 c 0,0 -0.309087,40.572379 -0.382838,65.377789 l -0.793147,2.37737 c -1.29431,3.87944 -2.96987,6.55157 -5.963948,9.51096 -2.90046,2.86687 -5.28705,4.34892 -9.01887,5.60064 -2.93149,0.98329 -8.44234,1.21308 -11.73157,0.48918 z"
         style="fill:#000000;fill-opacity:1;stroke:none;stroke-width:0.33962491"
         sodipodi:nodetypes="cscccccccscccccccccccccc" />
    </g>
  </g>
</svg>
