<?xml version="1.0" encoding="UTF-8" standalone="no"?>
<!-- Created with Inkscape (http://www.inkscape.org/) -->

<svg
   xmlns:dc="http://purl.org/dc/elements/1.1/"
   xmlns:cc="http://creativecommons.org/ns#"
   xmlns:rdf="http://www.w3.org/1999/02/22-rdf-syntax-ns#"
   xmlns:svg="http://www.w3.org/2000/svg"
   xmlns="http://www.w3.org/2000/svg"
   xmlns:sodipodi="http://sodipodi.sourceforge.net/DTD/sodipodi-0.dtd"
   xmlns:inkscape="http://www.inkscape.org/namespaces/inkscape"
   width="172.69347mm"
   height="172.69348mm"
   viewBox="0 0 172.69347 172.69348"
   version="1.1"
   id="svg8"
   inkscape:version="0.92.5 (2060ec1f9f, 2020-04-08)"
   sodipodi:docname="drawing-1.svg"
   inkscape:export-filename="C:\Users\User\bitmap.png"
   inkscape:export-xdpi="96"
   inkscape:export-ydpi="96">
  <defs
     id="defs2">
    <filter
       id="filter1065"
       inkscape:label="Drop Shadow"
       style="color-interpolation-filters:sRGB">
      <feFlood
         id="feFlood1055"
         result="flood"
         flood-color="rgb(0,0,0)"
         flood-opacity="0.305882" />
      <feComposite
         id="feComposite1057"
         result="composite1"
         operator="in"
         in2="SourceGraphic"
         in="flood" />
      <feGaussianBlur
         id="feGaussianBlur1059"
         result="blur"
         stdDeviation="4"
         in="composite1" />
      <feOffset
         id="feOffset1061"
         result="offset"
         dy="5"
         dx="0" />
      <feComposite
         id="feComposite1063"
         result="composite2"
         operator="over"
         in2="offset"
         in="SourceGraphic" />
    </filter>
  </defs>
  <sodipodi:namedview
     id="base"
     pagecolor="#ffffff"
     bordercolor="#666666"
     borderopacity="1.0"
     inkscape:pageopacity="0.0"
     inkscape:pageshadow="2"
     inkscape:zoom="0.46585"
     inkscape:cx="395.78619"
     inkscape:cy="324.55766"
     inkscape:document-units="mm"
     inkscape:current-layer="layer1"
     showgrid="false"
     fit-margin-top="0"
     fit-margin-left="0"
     fit-margin-right="0"
     fit-margin-bottom="0"
     inkscape:snap-bbox="true"
     inkscape:bbox-paths="true"
     inkscape:bbox-nodes="true"
     inkscape:snap-bbox-edge-midpoints="true"
     inkscape:snap-bbox-midpoints="true"
     inkscape:object-paths="true"
     inkscape:snap-intersection-paths="true"
     inkscape:snap-smooth-nodes="true"
     inkscape:snap-midpoints="true"
     inkscape:snap-object-midpoints="true"
     inkscape:snap-center="true" />
  <metadata
     id="metadata5">
    <rdf:RDF>
      <cc:Work
         rdf:about="">
        <dc:format>image/svg+xml</dc:format>
        <dc:type
           rdf:resource="http://purl.org/dc/dcmitype/StillImage" />
        <dc:title></dc:title>
      </cc:Work>
    </rdf:RDF>
  </metadata>
  <g
     inkscape:label="Layer 1"
     inkscape:groupmode="layer"
     id="layer1"
     transform="translate(163.45388,-14.861595)">
    <rect
       style="opacity:1;fill:#40b400;fill-opacity:1;fill-rule:nonzero;stroke:none;stroke-width:5;stroke-linejoin:round;stroke-miterlimit:4;stroke-dasharray:none;stroke-opacity:1"
       id="rect846"
       width="172.69347"
       height="172.81973"
       x="-163.45387"
       y="14.735333" />
    <g
       style="stroke:none"
       id="g837"
       transform="translate(20.788693,-58.208328)">
      <path
         sodipodi:nodetypes="cccccccc"
         inkscape:connector-curvature="0"
         id="path834"
         d="m -142.875,199.10417 40.38921,46.38437 90.936687,0.27486 -0.0564,-83.53943 c -12.307223,-12.48821 -39.496319,-38.03412 -51.894495,-50.4323 l -52.916672,29.10416 -2.64583,47.625 z"
         style="opacity:1;fill:#000000;fill-opacity:0.07843137;fill-rule:nonzero;stroke:none;stroke-width:5;stroke-linejoin:round;stroke-miterlimit:4;stroke-dasharray:none;stroke-opacity:1" />
    </g>
    <path
       style="fill:#ffffff;fill-opacity:1;stroke:none;stroke-width:0.24600895;filter:url(#filter1065)"
       d="m -112.33182,147.02025 c -4.71454,-1.03756 -8.92985,-4.37718 -11.02417,-8.73401 -1.32505,-2.75651 -1.72263,-4.50189 -1.70535,-7.48667 0.026,-4.49388 1.48484,-7.95222 4.72788,-11.208 2.40066,-2.4101 4.50727,-3.6457 7.53655,-4.42046 3.57448,-0.91419 8.03131,-0.47478 11.13471,1.09783 0.68499,0.34712 1.30448,0.63112 1.37663,0.63112 0.0721,0 0.13119,-10.66101 0.13119,-23.691148 v -23.69115 l 27.245481,-7.83228 c 14.985028,-4.30774 27.940065,-8.03119 28.788989,-8.27433 l 1.543503,-0.44208 -0.06745,33.38004 -0.06745,33.380058 -0.670229,1.96807 c -1.760934,5.17083 -5.538282,9.01964 -10.52317,10.72227 -2.162393,0.73857 -6.569708,0.9264 -8.901827,0.37937 -7.299925,-1.71229 -12.517549,-8.26529 -12.561007,-15.77581 -0.01711,-2.96082 0.379998,-4.73041 1.656304,-7.38027 1.89847,-3.94158 5.174928,-6.8304 9.445182,-8.32766 1.879966,-0.65918 2.440411,-0.74392 4.949145,-0.74835 3.209196,-0.005 5.208243,0.41721 7.441775,1.57423 l 1.414547,0.73277 V 88.853162 c 0,-9.03485 -0.0861,-14.02063 -0.242166,-14.02063 -0.133193,0 -9.477938,2.6569 -20.766109,5.90422 -11.288165,3.24732 -20.585345,5.90422 -20.660405,5.90422 -0.0751,0 -0.16817,10.65526 -0.20691,23.678358 l -0.0704,23.67836 -0.57452,1.72206 c -0.93754,2.81009 -2.15124,4.74566 -4.32002,6.88931 -2.10096,2.07663 -3.829693,3.15016 -6.532863,4.05685 -2.12344,0.71225 -6.11525,0.8787 -8.49782,0.35434 z"
       id="path826"
       inkscape:connector-curvature="0" />
  </g>
</svg>
